<svg width="816.492529296875px" height="121.383740234375px" xmlns="http://www.w3.org/2000/svg" viewBox="-158.2462646484375 14.308129882812501 816.492529296875 121.383740234375" style="background-color: rgba(146, 17, 17, 0);" preserveAspectRatio="xMidYMid"><defs><filter id="editing-vr"><feFlood flood-color="#ff2d00" flood-opacity="0.7" result="c1"></feFlood><feFlood flood-color="#0000ff" flood-opacity="0.7" result="c3"></feFlood><feComposite operator="in" in="c1" in2="SourceAlpha" result="text-c1"></feComposite><feComposite operator="in" in="c3" in2="SourceAlpha" result="text-c3"></feComposite><feOffset in="text-c1" dx="5" dy="-1" result="text1"></feOffset><feOffset in="text-c3" dx="-5" dy="1" result="text3"></feOffset><feBlend in="SourceGraphic" in2="text1" mode="multiply" result="text4"></feBlend><feBlend in="text4" in2="text3" mode="multiply"></feBlend></filter></defs><g filter="url(#editing-vr)"><g transform="translate(-43.60000491142273, 104.76781272888184)"><path d="M21.63-2.69L21.63-2.69L21.63-2.69Q18.56 1.28 10.94 1.28L10.94 1.28L10.94 1.28Q6.98 1.28 4.10-1.12L4.10-1.12L4.10-1.12Q1.22-3.52 1.22-6.98L1.22-6.98L1.22-6.98Q1.22-8.90 1.41-9.86L1.41-9.86L5.70-32.64L18.69-33.92L14.02-9.22L14.02-9.22Q13.76-7.81 13.76-6.98L13.76-6.98L13.76-6.98Q13.76-3.26 16-3.26L16-3.26L16-3.26Q18.50-3.26 20.29-6.66L20.29-6.66L20.29-6.66Q20.86-7.74 21.12-9.15L21.12-9.15L25.66-32.64L38.27-33.92L33.54-8.96L33.54-8.96Q33.34-8 33.34-6.98L33.34-6.98L33.34-6.98Q33.34-5.95 33.92-4.83L33.92-4.83L33.92-4.83Q34.50-3.71 36.35-3.46L36.35-3.46L36.35-3.46Q35.97-1.92 34.62-0.90L34.62-0.90L34.62-0.90Q31.81 1.28 28.77 1.28L28.77 1.28L28.77 1.28Q25.73 1.28 23.94 0.19L23.94 0.19L23.94 0.19Q22.14-0.90 21.63-2.69ZM68.80 1.28L68.80 1.28L68.80 1.28Q61.06 1.28 61.06-4.74L61.06-4.74L61.06-4.74Q61.12-6.40 61.63-9.22L61.63-9.22L62.78-15.10L62.78-15.10Q64.51-23.42 64.51-25.28L64.51-25.28L64.51-25.28Q64.51-28.99 62.34-28.99L62.34-28.99L62.34-28.99Q58.69-28.99 56.77-19.46L56.77-19.46L52.99 0L40.13 1.28L46.78-32.70L57.28-33.92L56.26-27.65L56.26-27.65Q59.26-33.92 68.48-33.92L68.48-33.92L68.48-33.92Q72.96-33.92 74.85-32.03L74.85-32.03L74.85-32.03Q76.74-30.14 76.74-25.92L76.74-25.92L76.74-25.92Q76.74-21.95 74.69-12.67L74.69-12.67L74.69-12.67Q73.73-8.51 73.73-6.94L73.73-6.94L73.73-6.94Q73.73-5.38 74.59-4.48L74.59-4.48L74.59-4.48Q75.46-3.58 76.74-3.46L76.74-3.46L76.74-3.46Q76.10-1.28 73.89 0L73.89 0L73.89 0Q71.68 1.28 68.80 1.28ZM100.99-22.46L100.99-22.46L100.99-22.46Q101.89-24.83 101.89-26.88L101.89-26.88L101.89-26.88Q101.89-30.66 98.82-30.66L98.82-30.66L98.82-30.66Q97.22-30.66 95.90-29.22L95.90-29.22L95.90-29.22Q94.59-27.78 94.59-25.98L94.59-25.98L94.59-25.98Q94.59-24.70 95.62-23.68L95.62-23.68L95.62-23.68Q97.09-22.27 100.86-19.97L100.86-19.97L100.86-19.97Q104.64-17.66 106.08-15.78L106.08-15.78L106.08-15.78Q107.52-13.89 107.52-11.30L107.52-11.30L107.52-11.30Q107.52-8.70 106.27-6.34L106.27-6.34L106.27-6.34Q105.02-3.97 102.78-2.30L102.78-2.30L102.78-2.30Q97.98 1.28 90.30 1.28L90.30 1.28L90.30 1.28Q86.14 1.28 82.94-0.90L82.94-0.90L82.94-0.90Q79.74-3.01 79.74-5.50L79.74-5.50L79.74-5.50Q79.74-8 81.57-9.47L81.57-9.47L81.57-9.47Q83.39-10.94 86.08-10.94L86.08-10.94L86.08-10.94Q88.77-10.94 90.43-9.92L90.43-9.92L90.43-9.92Q89.60-7.81 89.60-6.40L89.60-6.40L89.60-6.40Q89.60-2.18 93.18-2.18L93.18-2.18L93.18-2.18Q94.72-2.18 95.74-3.14L95.74-3.14L95.74-3.14Q96.77-4.10 96.77-5.76L96.77-5.76L96.77-5.76Q96.77-9.02 91.26-12.48L91.26-12.48L91.26-12.48Q86.78-15.42 85.76-16.58L85.76-16.58L85.76-16.58Q84.03-18.62 84.03-21.18L84.03-21.18L84.03-21.18Q84.03-23.74 85.25-26.18L85.25-26.18L85.25-26.18Q86.46-28.61 88.70-30.34L88.70-30.34L88.70-30.34Q93.38-33.92 101.50-33.92L101.50-33.92L101.50-33.92Q105.66-33.92 108.13-32.26L108.13-32.26L108.13-32.26Q110.59-30.59 110.59-27.78L110.59-27.78L110.59-27.78Q110.59-24.96 108.90-23.36L108.90-23.36L108.90-23.36Q107.20-21.76 104.13-21.76L104.13-21.76L104.13-21.76Q102.02-21.76 100.99-22.46ZM113.98-6.40L113.98-6.40L113.98-6.40Q113.98-8.13 114.88-12.48L114.88-12.48L118.27-29.76L114.50-29.76L114.75-31.68L114.75-31.68Q122.43-33.98 129.86-39.62L129.86-39.62L132.93-39.62L131.39-32.64L136.38-32.64L135.81-29.76L130.88-29.76L127.62-12.48L127.62-12.48Q126.78-8.51 126.78-7.17L126.78-7.17L126.78-7.17Q126.78-4.10 129.47-3.46L129.47-3.46L129.47-3.46Q128.83-1.28 126.53 0L126.53 0L126.53 0Q124.22 1.28 120.96 1.28L120.96 1.28L120.96 1.28Q117.70 1.28 115.84-0.77L115.84-0.77L115.84-0.77Q113.98-2.82 113.98-6.40ZM149.76 1.28L149.76 1.28L149.76 1.28Q135.68 1.28 135.68-11.97L135.68-11.97L135.68-11.97Q135.68-21.38 140.86-27.46L140.86-27.46L140.86-27.46Q146.37-33.92 155.90-33.92L155.90-33.92L155.90-33.92Q162.82-33.92 166.34-30.72L166.34-30.72L166.34-30.72Q169.86-27.52 169.86-20.80L169.86-20.80L169.86-20.80Q169.86-10.56 164.35-4.61L164.35-4.61L164.35-4.61Q158.98 1.28 149.76 1.28ZM151.42-26.56L151.42-26.56L151.42-26.56Q150.66-24.83 150.05-22.24L150.05-22.24L150.05-22.24Q149.44-19.65 148.67-15.55L148.67-15.55L148.67-15.55Q147.90-11.46 147.90-6.40L147.90-6.40L147.90-6.40Q147.90-4.74 148.45-3.65L148.45-3.65L148.45-3.65Q148.99-2.56 150.46-2.56L150.46-2.56L150.46-2.56Q151.94-2.56 152.86-3.26L152.86-3.26L152.86-3.26Q153.79-3.97 154.50-5.63L154.50-5.63L154.50-5.63Q155.78-8.58 156.80-14.05L156.80-14.05L156.80-14.05Q157.82-19.52 157.92-21.89L157.92-21.89L157.92-21.89Q158.02-24.26 158.02-26.02L158.02-26.02L158.02-26.02Q158.02-27.78 157.50-28.93L157.50-28.93L157.50-28.93Q156.99-30.08 155.55-30.08L155.55-30.08L155.55-30.08Q154.11-30.08 153.15-29.18L153.15-29.18L153.15-29.18Q152.19-28.29 151.42-26.56ZM203.46-4.38L203.46-4.38L203.46-4.38Q200.77-1.66 197.09-0.19L197.09-0.19L197.09-0.19Q193.41 1.28 189.76 1.28L189.76 1.28L189.76 1.28Q186.11 1.28 184.83 0.64L184.83 0.64L182.85 11.52L169.86 12.80L178.69-32.64L189.12-33.73L188.29-29.31L188.29-29.31Q190.98-33.86 196.54-33.86L196.54-33.86L196.54-33.86Q202.82-33.86 206.14-29.82L206.14-29.82L206.14-29.82Q209.09-26.18 209.09-20.61L209.09-20.61L209.09-20.61Q209.09-15.04 207.62-11.07L207.62-11.07L207.62-11.07Q206.14-7.10 203.46-4.38ZM188.99-22.34L185.60-3.58L185.60-3.58Q186.94-2.43 188.61-2.43L188.61-2.43L188.61-2.43Q190.27-2.43 191.23-3.07L191.23-3.07L191.23-3.07Q192.19-3.71 192.90-4.99L192.90-4.99L192.90-4.99Q194.82-8.45 196.35-18.94L196.35-18.94L196.35-18.94Q196.80-22.02 196.80-25.02L196.80-25.02L196.80-25.02Q196.80-28.03 196.13-28.99L196.13-28.99L196.13-28.99Q195.46-29.95 194.18-29.95L194.18-29.95L194.18-29.95Q190.27-29.95 188.99-22.34L188.99-22.34ZM242.75-4.38L242.75-4.38L242.75-4.38Q240.06-1.66 236.38-0.19L236.38-0.19L236.38-0.19Q232.70 1.28 229.06 1.28L229.06 1.28L229.06 1.28Q225.41 1.28 224.13 0.64L224.13 0.64L222.14 11.52L209.15 12.80L217.98-32.64L228.42-33.73L227.58-29.31L227.58-29.31Q230.27-33.86 235.84-33.86L235.84-33.86L235.84-33.86Q242.11-33.86 245.44-29.82L245.44-29.82L245.44-29.82Q248.38-26.18 248.38-20.61L248.38-20.61L248.38-20.61Q248.38-15.04 246.91-11.07L246.91-11.07L246.91-11.07Q245.44-7.10 242.75-4.38ZM228.29-22.34L224.90-3.58L224.90-3.58Q226.24-2.43 227.90-2.43L227.90-2.43L227.90-2.43Q229.57-2.43 230.53-3.07L230.53-3.07L230.53-3.07Q231.49-3.71 232.19-4.99L232.19-4.99L232.19-4.99Q234.11-8.45 235.65-18.94L235.65-18.94L235.65-18.94Q236.10-22.02 236.10-25.02L236.10-25.02L236.10-25.02Q236.10-28.03 235.42-28.99L235.42-28.99L235.42-28.99Q234.75-29.95 233.47-29.95L233.47-29.95L233.47-29.95Q229.57-29.95 228.29-22.34L228.29-22.34ZM255.01-1.92L255.01-1.92L255.01-1.92Q253.50-3.58 252.83-6.21L252.83-6.21L252.83-6.21Q252.16-8.83 252.16-13.12L252.16-13.12L252.16-13.12Q252.16-17.41 253.63-21.31L253.63-21.31L253.63-21.31Q255.10-25.22 257.79-28.03L257.79-28.03L257.79-28.03Q263.30-33.92 272.38-33.92L272.38-33.92L272.38-33.92Q275.65-33.92 278.02-32.83L278.02-32.83L288.96-33.92L284.22-8.96L284.22-8.96Q284.03-8.19 284.03-6.78L284.03-6.78L284.03-6.78Q284.03-5.38 284.90-4.48L284.90-4.48L284.90-4.48Q285.76-3.58 287.04-3.46L287.04-3.46L287.04-3.46Q286.40-1.28 284.06 0L284.06 0L284.06 0Q281.73 1.28 279.10 1.28L279.10 1.28L279.10 1.28Q276.48 1.28 274.72 0.29L274.72 0.29L274.72 0.29Q272.96-0.70 272.45-2.37L272.45-2.37L272.45-2.37Q271.42-0.77 269.25 0.26L269.25 0.26L269.25 0.26Q267.07 1.28 264.16 1.28L264.16 1.28L264.16 1.28Q261.25 1.28 258.88 0.51L258.88 0.51L258.88 0.51Q256.51-0.26 255.01-1.92ZM268.51-27.90L268.51-27.90L268.51-27.90Q267.78-26.75 267.14-24.80L267.14-24.80L267.14-24.80Q266.50-22.85 265.44-17.63L265.44-17.63L265.44-17.63Q264.38-12.42 264.38-8.70L264.38-8.70L264.38-8.70Q264.38-4.99 264.96-3.90L264.96-3.90L264.96-3.90Q265.54-2.82 266.56-2.82L266.56-2.82L266.56-2.82Q268.61-2.82 270.11-4.77L270.11-4.77L270.11-4.77Q271.62-6.72 272.19-10.18L272.19-10.18L275.58-28.93L275.58-28.93Q274.24-30.08 272.67-30.08L272.67-30.08L272.67-30.08Q271.10-30.08 270.18-29.57L270.18-29.57L270.18-29.57Q269.25-29.06 268.51-27.90ZM291.58-3.07L291.58-3.07L299.52-44.80L312.51-46.08L310.53-36.29L310.53-36.29Q309.82-33.28 308.93-31.17L308.93-31.17L308.93-31.17Q310.34-32.96 313.41-33.66L313.41-33.66L313.41-33.66Q314.30-33.92 315.39-33.92L315.39-33.92L315.39-33.92Q321.34-33.92 324.61-30.30L324.61-30.30L324.61-30.30Q327.87-26.69 327.87-19.71L327.87-19.71L327.87-19.71Q327.87-10.62 322.69-4.93L322.69-4.93L322.69-4.93Q317.12 1.28 307.01 1.28L307.01 1.28L307.01 1.28Q300.03 1.28 294.78-1.02L294.78-1.02L294.78-1.02Q292.93-1.86 291.58-3.07ZM307.84-22.40L304.45-3.65L304.45-3.65Q305.79-2.50 307.46-2.50L307.46-2.50L307.46-2.50Q309.12-2.50 310.08-3.14L310.08-3.14L310.08-3.14Q311.04-3.78 311.74-5.06L311.74-5.06L311.74-5.06Q313.66-8.51 315.20-19.07L315.20-19.07L315.20-19.07Q315.65-22.08 315.65-25.09L315.65-25.09L315.65-25.09Q315.65-28.10 314.98-29.06L314.98-29.06L314.98-29.06Q314.30-30.02 313.02-30.02L313.02-30.02L313.02-30.02Q309.12-30.02 307.84-22.40L307.84-22.40ZM347.01-3.52L347.01-3.52L347.01-3.52Q345.02 1.28 338.69 1.28L338.69 1.28L338.69 1.28Q335.49 1.28 333.44-0.96L333.44-0.96L333.44-0.96Q331.78-2.82 331.78-4.93L331.78-4.93L331.78-4.93Q331.78-9.73 334.02-20.22L334.02-20.22L338.69-44.80L351.68-46.08L345.47-13.70L345.47-13.70Q344.38-8.96 344.38-7.30L344.38-7.30L344.38-7.30Q344.38-3.65 347.01-3.52ZM378.37-10.82L378.37-10.82L378.37-10.82Q379.97-9.73 379.97-7.33L379.97-7.33L379.97-7.33Q379.97-4.93 378.75-3.39L378.75-3.39L378.75-3.39Q377.54-1.86 375.55-0.83L375.55-0.83L375.55-0.83Q371.46 1.28 367.04 1.28L367.04 1.28L367.04 1.28Q362.62 1.28 360.03 0.32L360.03 0.32L360.03 0.32Q357.44-0.64 355.71-2.43L355.71-2.43L355.71-2.43Q352.32-5.82 352.32-12.03L352.32-12.03L352.32-12.03Q352.32-21.70 357.57-27.58L357.57-27.58L357.57-27.58Q363.20-33.92 372.99-33.92L372.99-33.92L372.99-33.92Q379.07-33.92 382.08-31.36L382.08-31.36L382.08-31.36Q384.32-29.44 384.32-26.30L384.32-26.30L384.32-26.30Q384.32-15.04 364.86-15.04L364.86-15.04L364.86-15.04Q364.61-13.38 364.61-11.97L364.61-11.97L364.61-11.97Q364.61-9.02 365.92-7.90L365.92-7.90L365.92-7.90Q367.23-6.78 369.66-6.78L369.66-6.78L369.66-6.78Q372.10-6.78 374.69-7.90L374.69-7.90L374.69-7.90Q377.28-9.02 378.37-10.82ZM365.31-17.79L365.31-17.79L365.31-17.79Q369.86-17.79 372.48-20.61L372.48-20.61L372.48-20.61Q375.10-23.30 375.10-27.58L375.10-27.58L375.10-27.58Q375.10-29.06 374.56-29.86L374.56-29.86L374.56-29.86Q374.02-30.66 372.93-30.66L372.93-30.66L372.93-30.66Q371.84-30.66 370.91-30.24L370.91-30.24L370.91-30.24Q369.98-29.82 369.02-28.42L369.02-28.42L369.02-28.42Q366.66-25.22 365.31-17.79ZM384.58-3.78L384.58-3.78L384.58-3.78Q384.58-6.21 386.46-7.55L386.46-7.55L386.46-7.55Q388.35-8.90 391.04-8.90L391.04-8.90L391.04-8.90Q393.73-8.90 395.36-7.55L395.36-7.55L395.36-7.55Q396.99-6.21 396.99-3.78L396.99-3.78L396.99-3.78Q396.99-1.34 395.17-0.03L395.17-0.03L395.17-0.03Q393.34 1.28 390.66 1.28L390.66 1.28L390.66 1.28Q387.97 1.28 386.27-0.03L386.27-0.03L386.27-0.03Q384.58-1.34 384.58-3.78ZM422.08-22.46L422.08-22.46L422.08-22.46Q422.98-24.83 422.98-26.88L422.98-26.88L422.98-26.88Q422.98-30.66 419.90-30.66L419.90-30.66L419.90-30.66Q418.30-30.66 416.99-29.22L416.99-29.22L416.99-29.22Q415.68-27.78 415.68-25.98L415.68-25.98L415.68-25.98Q415.68-24.70 416.70-23.68L416.70-23.68L416.70-23.68Q418.18-22.27 421.95-19.97L421.95-19.97L421.95-19.97Q425.73-17.66 427.17-15.78L427.17-15.78L427.17-15.78Q428.61-13.89 428.61-11.30L428.61-11.30L428.61-11.30Q428.61-8.70 427.36-6.34L427.36-6.34L427.36-6.34Q426.11-3.97 423.87-2.30L423.87-2.30L423.87-2.30Q419.07 1.28 411.39 1.28L411.39 1.28L411.39 1.28Q407.23 1.28 404.03-0.90L404.03-0.90L404.03-0.90Q400.83-3.01 400.83-5.50L400.83-5.50L400.83-5.50Q400.83-8 402.66-9.47L402.66-9.47L402.66-9.47Q404.48-10.94 407.17-10.94L407.17-10.94L407.17-10.94Q409.86-10.94 411.52-9.92L411.52-9.92L411.52-9.92Q410.69-7.81 410.69-6.40L410.69-6.40L410.69-6.40Q410.69-2.18 414.27-2.18L414.27-2.18L414.27-2.18Q415.81-2.18 416.83-3.14L416.83-3.14L416.83-3.14Q417.86-4.10 417.86-5.76L417.86-5.76L417.86-5.76Q417.86-9.02 412.35-12.48L412.35-12.48L412.35-12.48Q407.87-15.42 406.85-16.58L406.85-16.58L406.85-16.58Q405.12-18.62 405.12-21.18L405.12-21.18L405.12-21.18Q405.12-23.74 406.34-26.18L406.34-26.18L406.34-26.18Q407.55-28.61 409.79-30.34L409.79-30.34L409.79-30.34Q414.46-33.92 422.59-33.92L422.59-33.92L422.59-33.92Q426.75-33.92 429.22-32.26L429.22-32.26L429.22-32.26Q431.68-30.59 431.68-27.78L431.68-27.78L431.68-27.78Q431.68-24.96 429.98-23.36L429.98-23.36L429.98-23.36Q428.29-21.76 425.22-21.76L425.22-21.76L425.22-21.76Q423.10-21.76 422.08-22.46ZM448.00 1.28L448.00 1.28L448.00 1.28Q433.92 1.28 433.92-11.97L433.92-11.97L433.92-11.97Q433.92-21.38 439.10-27.46L439.10-27.46L439.10-27.46Q444.61-33.92 454.14-33.92L454.14-33.92L454.14-33.92Q461.06-33.92 464.58-30.72L464.58-30.72L464.58-30.72Q468.10-27.52 468.10-20.80L468.10-20.80L468.10-20.80Q468.10-10.56 462.59-4.61L462.59-4.61L462.59-4.61Q457.22 1.28 448.00 1.28ZM449.66-26.56L449.66-26.56L449.66-26.56Q448.90-24.83 448.29-22.24L448.29-22.24L448.29-22.24Q447.68-19.65 446.91-15.55L446.91-15.55L446.91-15.55Q446.14-11.46 446.14-6.40L446.14-6.40L446.14-6.40Q446.14-4.74 446.69-3.65L446.69-3.65L446.69-3.65Q447.23-2.56 448.70-2.56L448.70-2.56L448.70-2.56Q450.18-2.56 451.10-3.26L451.10-3.26L451.10-3.26Q452.03-3.97 452.74-5.63L452.74-5.63L452.74-5.63Q454.02-8.58 455.04-14.05L455.04-14.05L455.04-14.05Q456.06-19.52 456.16-21.89L456.16-21.89L456.16-21.89Q456.26-24.26 456.26-26.02L456.26-26.02L456.26-26.02Q456.26-27.78 455.74-28.93L455.74-28.93L455.74-28.93Q455.23-30.08 453.79-30.08L453.79-30.08L453.79-30.08Q452.35-30.08 451.39-29.18L451.39-29.18L451.39-29.18Q450.43-28.29 449.66-26.56ZM503.30-26.62L503.30-26.62L503.30-26.62Q503.30-23.94 501.06-22.27L501.06-22.27L501.06-22.27Q498.82-20.61 495.17-20.61L495.17-20.61L495.17-20.61Q493.63-20.61 492.74-21.06L492.74-21.06L492.74-21.06Q493.44-22.72 493.66-24.80L493.66-24.80L493.66-24.80Q493.89-26.88 493.89-27.46L493.89-27.46L493.89-27.46Q493.89-30.14 492.03-30.14L492.03-30.14L492.03-30.14Q490.75-30.14 489.31-28.54L489.31-28.54L489.31-28.54Q487.87-26.94 486.66-24.45L486.66-24.45L486.66-24.45Q483.97-18.69 483.97-12.86L483.97-12.86L483.97-12.86Q483.97-9.66 485.18-8.22L485.18-8.22L485.18-8.22Q486.40-6.78 489.09-6.78L489.09-6.78L489.09-6.78Q492.80-6.78 495.74-9.86L495.74-9.86L495.74-9.86Q496.58-10.82 497.02-11.90L497.02-11.90L497.02-11.90Q499.46-10.62 499.46-7.10L499.46-7.10L499.46-7.10Q499.46-3.52 495.49-1.15L495.49-1.15L495.49-1.15Q491.39 1.28 484.86 1.28L484.86 1.28L484.86 1.28Q471.87 1.28 471.87-12.48L471.87-12.48L471.87-12.48Q471.87-22.53 477.57-28.29L477.57-28.29L477.57-28.29Q483.07-33.92 493.18-33.92L493.18-33.92L493.18-33.92Q503.30-33.92 503.30-26.62ZM520.38-3.52L520.38-3.52L520.38-3.52Q518.40 1.28 512.06 1.28L512.06 1.28L512.06 1.28Q508.80 1.28 506.75-0.96L506.75-0.96L506.75-0.96Q505.02-2.94 505.02-4.93L505.02-4.93L505.02-4.93Q505.02-10.11 507.39-20.22L507.39-20.22L509.76-32.64L522.75-33.92L518.85-13.70L518.85-13.70Q517.76-8.96 517.76-7.30L517.76-7.30L517.76-7.30Q517.76-3.65 520.38-3.52ZM510.91-41.54L510.91-41.54L510.91-41.54Q510.91-44.03 512.99-45.38L512.99-45.38L512.99-45.38Q515.07-46.72 518.08-46.72L518.08-46.72L518.08-46.72Q521.09-46.72 522.91-45.38L522.91-45.38L522.91-45.38Q524.74-44.03 524.74-41.54L524.74-41.54L524.74-41.54Q524.74-39.04 522.72-37.76L522.72-37.76L522.72-37.76Q520.70-36.48 517.70-36.48L517.70-36.48L517.70-36.48Q514.69-36.48 512.80-37.76L512.80-37.76L512.80-37.76Q510.91-39.04 510.91-41.54ZM528.61-1.92L528.61-1.92L528.61-1.92Q527.10-3.58 526.43-6.21L526.43-6.21L526.43-6.21Q525.76-8.83 525.76-13.12L525.76-13.12L525.76-13.12Q525.76-17.41 527.23-21.31L527.23-21.31L527.23-21.31Q528.70-25.22 531.39-28.03L531.39-28.03L531.39-28.03Q536.90-33.92 545.98-33.92L545.98-33.92L545.98-33.92Q549.25-33.92 551.62-32.83L551.62-32.83L562.56-33.92L557.82-8.96L557.82-8.96Q557.63-8.19 557.63-6.78L557.63-6.78L557.63-6.78Q557.63-5.38 558.50-4.48L558.50-4.48L558.50-4.48Q559.36-3.58 560.64-3.46L560.64-3.46L560.64-3.46Q560.00-1.28 557.66 0L557.66 0L557.66 0Q555.33 1.28 552.70 1.28L552.70 1.28L552.70 1.28Q550.08 1.28 548.32 0.29L548.32 0.29L548.32 0.29Q546.56-0.70 546.05-2.37L546.05-2.37L546.05-2.37Q545.02-0.77 542.85 0.26L542.85 0.26L542.85 0.26Q540.67 1.28 537.76 1.28L537.76 1.28L537.76 1.28Q534.85 1.28 532.48 0.51L532.48 0.51L532.48 0.51Q530.11-0.26 528.61-1.92ZM542.11-27.90L542.11-27.90L542.11-27.90Q541.38-26.75 540.74-24.80L540.74-24.80L540.74-24.80Q540.10-22.85 539.04-17.63L539.04-17.63L539.04-17.63Q537.98-12.42 537.98-8.70L537.98-8.70L537.98-8.70Q537.98-4.99 538.56-3.90L538.56-3.90L538.56-3.90Q539.14-2.82 540.16-2.82L540.16-2.82L540.16-2.82Q542.21-2.82 543.71-4.77L543.71-4.77L543.71-4.77Q545.22-6.72 545.79-10.18L545.79-10.18L549.18-28.93L549.18-28.93Q547.84-30.08 546.27-30.08L546.27-30.08L546.27-30.08Q544.70-30.08 543.78-29.57L543.78-29.57L543.78-29.57Q542.85-29.06 542.11-27.90ZM581.31-3.52L581.31-3.52L581.31-3.52Q579.33 1.28 572.99 1.28L572.99 1.28L572.99 1.28Q569.79 1.28 567.74-0.96L567.74-0.96L567.74-0.96Q566.08-2.82 566.08-4.93L566.08-4.93L566.08-4.93Q566.08-9.73 568.32-20.22L568.32-20.22L572.99-44.80L585.98-46.08L579.78-13.70L579.78-13.70Q578.69-8.96 578.69-7.30L578.69-7.30L578.69-7.30Q578.69-3.65 581.31-3.52Z" fill="#444"></path></g></g><style>text {
  font-size: 64px;
  font-family: Arial Black;
  dominant-baseline: central;
  text-anchor: middle;
}</style></svg>