<svg width="842.077490234375px" height="100.94125976562499px" xmlns="http://www.w3.org/2000/svg" viewBox="-171.0387451171875 24.529370117187504 842.077490234375 100.94125976562499" style="background-image: none;" preserveAspectRatio="xMidYMid"><defs><linearGradient id="editing-glowing-gradient" x1="0.8146601955249186" x2="0.18533980447508142" y1="0.8885729807284856" y2="0.11142701927151444"><stop offset="0" stop-color="#fa902f"></stop><stop offset="1" stop-color="#97f73d"></stop></linearGradient><filter id="editing-glowing" x="-100%" y="-100%" width="300%" height="300%"><feGaussianBlur in="SourceGraphic" result="blur" stdDeviation="10"></feGaussianBlur><feMerge><feMergeNode in="blur"></feMergeNode><feMergeNode in="SourceGraphic"></feMergeNode></feMerge></filter></defs><g filter="url(#editing-glowing)"><g transform="translate(-52.36001110076904, 104.77281188964844)"><path d="M5.13-6.16L5.13-33.28L11.25-33.28L11.25-6.16L28.41-6.16L28.41-33.28L34.56-33.28L34.56 0L28.41 0L28.41-5.63L28.41-5.63Q28.31-4.47 27.78-3.44L27.78-3.44L27.78-3.44Q27.25-2.41 26.42-1.64L26.42-1.64L26.42-1.64Q25.59-0.88 24.53-0.44L24.53-0.44L24.53-0.44Q23.47 0 22.28 0L22.28 0L11.25 0L11.25 0Q10 0 8.88-0.48L8.88-0.48L8.88-0.48Q7.75-0.97 6.92-1.80L6.92-1.80L6.92-1.80Q6.09-2.63 5.61-3.75L5.61-3.75L5.61-3.75Q5.13-4.88 5.13-6.16L5.13-6.16ZM74.25-27.13L74.25 0L68.09 0L68.09-27.13L50.94-27.13L50.94 0L44.81 0L44.81-33.28L50.94-33.28L50.94-27.41L50.94-27.41Q51-28.63 51.50-29.70L51.50-29.70L51.50-29.70Q52-30.78 52.83-31.58L52.83-31.58L52.83-31.58Q53.66-32.38 54.75-32.83L54.75-32.83L54.75-32.83Q55.84-33.28 57.09-33.28L57.09-33.28L68.09-33.28L68.09-33.28Q69.38-33.28 70.50-32.80L70.50-32.80L70.50-32.80Q71.63-32.31 72.45-31.48L72.45-31.48L72.45-31.48Q73.28-30.66 73.77-29.53L73.77-29.53L73.77-29.53Q74.25-28.41 74.25-27.13L74.25-27.13ZM83.84-6.16L104.59-6.16L104.59-13.88L90-13.88L90-13.88Q88.72-13.88 87.59-14.36L87.59-14.36L87.59-14.36Q86.47-14.84 85.64-15.67L85.64-15.67L85.64-15.67Q84.81-16.50 84.33-17.63L84.33-17.63L84.33-17.63Q83.84-18.75 83.84-20.03L83.84-20.03L83.84-27.13L83.84-27.13Q83.84-28.41 84.33-29.53L84.33-29.53L84.33-29.53Q84.81-30.66 85.64-31.48L85.64-31.48L85.64-31.48Q86.47-32.31 87.59-32.80L87.59-32.80L87.59-32.80Q88.72-33.28 90-33.28L90-33.28L109.47-33.28L109.47-27.13L90-27.13L90-20.03L104.59-20.03L104.59-20.03Q105.88-20.03 106.98-19.55L106.98-19.55L106.98-19.55Q108.09-19.06 108.94-18.23L108.94-18.23L108.94-18.23Q109.78-17.41 110.27-16.28L110.27-16.28L110.27-16.28Q110.75-15.16 110.75-13.88L110.75-13.88L110.75-6.16L110.75-6.16Q110.75-4.88 110.27-3.75L110.27-3.75L110.27-3.75Q109.78-2.63 108.94-1.80L108.94-1.80L108.94-1.80Q108.09-0.97 106.98-0.48L106.98-0.48L106.98-0.48Q105.88 0 104.59 0L104.59 0L83.84 0L83.84-6.16ZM118.41-27.13L118.41-33.28L126.53-33.28L126.53-43.53L132.69-43.53L132.69-33.28L143.63-33.28L143.63-27.13L132.69-27.13L132.69-6.16L143.63-6.16L143.63 0L132.69 0L132.69 0Q131.44 0 130.31-0.48L130.31-0.48L130.31-0.48Q129.19-0.97 128.34-1.80L128.34-1.80L128.34-1.80Q127.50-2.63 127.02-3.75L127.02-3.75L127.02-3.75Q126.53-4.88 126.53-6.16L126.53-6.16L126.53-27.13L118.41-27.13ZM182.66-27.13L182.66-6.16L182.66-6.16Q182.66-4.88 182.17-3.75L182.17-3.75L182.17-3.75Q181.69-2.63 180.86-1.80L180.86-1.80L180.86-1.80Q180.03-0.97 178.92-0.48L178.92-0.48L178.92-0.48Q177.81 0 176.53 0L176.53 0L160 0L160 0Q158.75 0 157.63-0.48L157.63-0.48L157.63-0.48Q156.50-0.97 155.67-1.80L155.67-1.80L155.67-1.80Q154.84-2.63 154.36-3.75L154.36-3.75L154.36-3.75Q153.88-4.88 153.88-6.16L153.88-6.16L153.88-27.13L153.88-27.13Q153.88-28.41 154.36-29.53L154.36-29.53L154.36-29.53Q154.84-30.66 155.67-31.48L155.67-31.48L155.67-31.48Q156.50-32.31 157.63-32.80L157.63-32.80L157.63-32.80Q158.75-33.28 160-33.28L160-33.28L176.53-33.28L176.53-33.28Q177.81-33.28 178.92-32.80L178.92-32.80L178.92-32.80Q180.03-32.31 180.86-31.48L180.86-31.48L180.86-31.48Q181.69-30.66 182.17-29.53L182.17-29.53L182.17-29.53Q182.66-28.41 182.66-27.13L182.66-27.13ZM176.53-27.13L160-27.13L160-6.16L176.53-6.16L176.53-27.13ZM222.34-27.13L222.34-6.16L222.34-6.16Q222.34-4.88 221.86-3.75L221.86-3.75L221.86-3.75Q221.38-2.63 220.55-1.80L220.55-1.80L220.55-1.80Q219.72-0.97 218.59-0.48L218.59-0.48L218.59-0.48Q217.47 0 216.19 0L216.19 0L199.03 0L199.03 13.44L192.91 13.44L192.91-33.28L199.03-33.28L199.03-27.66L199.03-27.66Q199.13-28.84 199.66-29.86L199.66-29.86L199.66-29.86Q200.19-30.88 201-31.64L201-31.64L201-31.64Q201.81-32.41 202.89-32.84L202.89-32.84L202.89-32.84Q203.97-33.28 205.19-33.28L205.19-33.28L216.19-33.28L216.19-33.28Q217.47-33.28 218.59-32.80L218.59-32.80L218.59-32.80Q219.72-32.31 220.55-31.48L220.55-31.48L220.55-31.48Q221.38-30.66 221.86-29.53L221.86-29.53L221.86-29.53Q222.34-28.41 222.34-27.13L222.34-27.13ZM199.03-6.16L216.19-6.16L216.19-27.13L199.03-27.13L199.03-6.16ZM262.03-27.13L262.03-6.16L262.03-6.16Q262.03-4.88 261.55-3.75L261.55-3.75L261.55-3.75Q261.06-2.63 260.23-1.80L260.23-1.80L260.23-1.80Q259.41-0.97 258.28-0.48L258.28-0.48L258.28-0.48Q257.16 0 255.88 0L255.88 0L238.72 0L238.72 13.44L232.59 13.44L232.59-33.28L238.72-33.28L238.72-27.66L238.72-27.66Q238.81-28.84 239.34-29.86L239.34-29.86L239.34-29.86Q239.88-30.88 240.69-31.64L240.69-31.64L240.69-31.64Q241.50-32.41 242.58-32.84L242.58-32.84L242.58-32.84Q243.66-33.28 244.88-33.28L244.88-33.28L255.88-33.28L255.88-33.28Q257.16-33.28 258.28-32.80L258.28-32.80L258.28-32.80Q259.41-32.31 260.23-31.48L260.23-31.48L260.23-31.48Q261.06-30.66 261.55-29.53L261.55-29.53L261.55-29.53Q262.03-28.41 262.03-27.13L262.03-27.13ZM238.72-6.16L255.88-6.16L255.88-27.13L238.72-27.13L238.72-6.16ZM272.28-6.16L272.28-14.53L272.28-14.53Q272.28-15.81 272.77-16.92L272.77-16.92L272.77-16.92Q273.25-18.03 274.08-18.88L274.08-18.88L274.08-18.88Q274.91-19.72 276.03-20.20L276.03-20.20L276.03-20.20Q277.16-20.69 278.41-20.69L278.41-20.69L294.28-20.69L294.28-27.13L274.19-27.13L274.19-33.28L294.28-33.28L294.28-33.28Q295.56-33.28 296.69-32.80L296.69-32.80L296.69-32.80Q297.81-32.31 298.64-31.48L298.64-31.48L298.64-31.48Q299.47-30.66 299.95-29.53L299.95-29.53L299.95-29.53Q300.44-28.41 300.44-27.13L300.44-27.13L300.44 0L294.28 0L294.28-5.63L294.28-5.63Q294.19-4.47 293.66-3.44L293.66-3.44L293.66-3.44Q293.13-2.41 292.30-1.64L292.30-1.64L292.30-1.64Q291.47-0.88 290.41-0.44L290.41-0.44L290.41-0.44Q289.34 0 288.16 0L288.16 0L278.41 0L278.41 0Q277.16 0 276.03-0.48L276.03-0.48L276.03-0.48Q274.91-0.97 274.08-1.80L274.08-1.80L274.08-1.80Q273.25-2.63 272.77-3.75L272.77-3.75L272.77-3.75Q272.28-4.88 272.28-6.16L272.28-6.16ZM278.41-14.53L278.41-6.16L294.28-6.16L294.28-14.53L278.41-14.53ZM340.13-27.13L340.13-6.16L340.13-6.16Q340.13-4.88 339.64-3.75L339.64-3.75L339.64-3.75Q339.16-2.63 338.33-1.80L338.33-1.80L338.33-1.80Q337.50-0.97 336.38-0.48L336.38-0.48L336.38-0.48Q335.25 0 333.97 0L333.97 0L316.81 0L316.81 0Q315.56 0 314.44-0.48L314.44-0.48L314.44-0.48Q313.31-0.97 312.48-1.80L312.48-1.80L312.48-1.80Q311.66-2.63 311.17-3.75L311.17-3.75L311.17-3.75Q310.69-4.88 310.69-6.16L310.69-6.16L310.69-46.09L316.81-46.09L316.81-27.41L316.81-27.41Q316.88-28.63 317.38-29.70L317.38-29.70L317.38-29.70Q317.88-30.78 318.70-31.58L318.70-31.58L318.70-31.58Q319.53-32.38 320.63-32.83L320.63-32.83L320.63-32.83Q321.72-33.28 322.97-33.28L322.97-33.28L333.97-33.28L333.97-33.28Q335.25-33.28 336.38-32.80L336.38-32.80L336.38-32.80Q337.50-32.31 338.33-31.48L338.33-31.48L338.33-31.48Q339.16-30.66 339.64-29.53L339.64-29.53L339.64-29.53Q340.13-28.41 340.13-27.13L340.13-27.13ZM333.97-27.13L316.81-27.13L316.81-6.16L333.97-6.16L333.97-27.13ZM350.38-46.09L356.50-46.09L356.50 0L350.38 0L350.38-46.09ZM394.91-27.13L394.91-13.50L372.88-13.50L372.88-6.16L394.91-6.16L394.91 0L372.88 0L372.88 0Q371.63 0 370.50-0.48L370.50-0.48L370.50-0.48Q369.38-0.97 368.55-1.80L368.55-1.80L368.55-1.80Q367.72-2.63 367.23-3.75L367.23-3.75L367.23-3.75Q366.75-4.88 366.75-6.16L366.75-6.16L366.75-27.13L366.75-27.13Q366.75-28.41 367.23-29.53L367.23-29.53L367.23-29.53Q367.72-30.66 368.55-31.48L368.55-31.48L368.55-31.48Q369.38-32.31 370.50-32.80L370.50-32.80L370.50-32.80Q371.63-33.28 372.88-33.28L372.88-33.28L388.75-33.28L388.75-33.28Q390.03-33.28 391.16-32.80L391.16-32.80L391.16-32.80Q392.28-32.31 393.11-31.48L393.11-31.48L393.11-31.48Q393.94-30.66 394.42-29.53L394.42-29.53L394.42-29.53Q394.91-28.41 394.91-27.13L394.91-27.13ZM388.75-27.13L372.88-27.13L372.88-19.66L388.75-19.66L388.75-27.13ZM405.16 0L405.16-9.34L414.50-9.34L414.50 0L405.16 0ZM424.09-6.16L444.84-6.16L444.84-13.88L430.25-13.88L430.25-13.88Q428.97-13.88 427.84-14.36L427.84-14.36L427.84-14.36Q426.72-14.84 425.89-15.67L425.89-15.67L425.89-15.67Q425.06-16.50 424.58-17.63L424.58-17.63L424.58-17.63Q424.09-18.75 424.09-20.03L424.09-20.03L424.09-27.13L424.09-27.13Q424.09-28.41 424.58-29.53L424.58-29.53L424.58-29.53Q425.06-30.66 425.89-31.48L425.89-31.48L425.89-31.48Q426.72-32.31 427.84-32.80L427.84-32.80L427.84-32.80Q428.97-33.28 430.25-33.28L430.25-33.28L449.72-33.28L449.72-27.13L430.25-27.13L430.25-20.03L444.84-20.03L444.84-20.03Q446.13-20.03 447.23-19.55L447.23-19.55L447.23-19.55Q448.34-19.06 449.19-18.23L449.19-18.23L449.19-18.23Q450.03-17.41 450.52-16.28L450.52-16.28L450.52-16.28Q451-15.16 451-13.88L451-13.88L451-6.16L451-6.16Q451-4.88 450.52-3.75L450.52-3.75L450.52-3.75Q450.03-2.63 449.19-1.80L449.19-1.80L449.19-1.80Q448.34-0.97 447.23-0.48L447.23-0.48L447.23-0.48Q446.13 0 444.84 0L444.84 0L424.09 0L424.09-6.16ZM489.38-27.13L489.38-6.16L489.38-6.16Q489.38-4.88 488.89-3.75L488.89-3.75L488.89-3.75Q488.41-2.63 487.58-1.80L487.58-1.80L487.58-1.80Q486.75-0.97 485.64-0.48L485.64-0.48L485.64-0.48Q484.53 0 483.25 0L483.25 0L466.72 0L466.72 0Q465.47 0 464.34-0.48L464.34-0.48L464.34-0.48Q463.22-0.97 462.39-1.80L462.39-1.80L462.39-1.80Q461.56-2.63 461.08-3.75L461.08-3.75L461.08-3.75Q460.59-4.88 460.59-6.16L460.59-6.16L460.59-27.13L460.59-27.13Q460.59-28.41 461.08-29.53L461.08-29.53L461.08-29.53Q461.56-30.66 462.39-31.48L462.39-31.48L462.39-31.48Q463.22-32.31 464.34-32.80L464.34-32.80L464.34-32.80Q465.47-33.28 466.72-33.28L466.72-33.28L483.25-33.28L483.25-33.28Q484.53-33.28 485.64-32.80L485.64-32.80L485.64-32.80Q486.75-32.31 487.58-31.48L487.58-31.48L487.58-31.48Q488.41-30.66 488.89-29.53L488.89-29.53L488.89-29.53Q489.38-28.41 489.38-27.13L489.38-27.13ZM483.25-27.13L466.72-27.13L466.72-6.16L483.25-6.16L483.25-27.13ZM521.63-27.13L505.75-27.13L505.75-6.16L521.63-6.16L521.63-11.78L527.78-11.78L527.78-6.16L527.78-6.16Q527.78-4.88 527.30-3.75L527.30-3.75L527.30-3.75Q526.81-2.63 525.98-1.80L525.98-1.80L525.98-1.80Q525.16-0.97 524.03-0.48L524.03-0.48L524.03-0.48Q522.91 0 521.63 0L521.63 0L505.75 0L505.75 0Q504.50 0 503.38-0.48L503.38-0.48L503.38-0.48Q502.25-0.97 501.42-1.80L501.42-1.80L501.42-1.80Q500.59-2.63 500.11-3.75L500.11-3.75L500.11-3.75Q499.63-4.88 499.63-6.16L499.63-6.16L499.63-27.13L499.63-27.13Q499.63-28.41 500.11-29.53L500.11-29.53L500.11-29.53Q500.59-30.66 501.42-31.48L501.42-31.48L501.42-31.48Q502.25-32.31 503.38-32.80L503.38-32.80L503.38-32.80Q504.50-33.28 505.75-33.28L505.75-33.28L521.63-33.28L521.63-33.28Q522.91-33.28 524.03-32.80L524.03-32.80L524.03-32.80Q525.16-32.31 525.98-31.48L525.98-31.48L525.98-31.48Q526.81-30.66 527.30-29.53L527.30-29.53L527.30-29.53Q527.78-28.41 527.78-27.13L527.78-27.13L527.78-21.50L521.63-21.50L521.63-27.13ZM538.34-33.28L544.50-33.28L544.50 0L538.34 0L538.34-33.28ZM538.03-39.69L538.03-46.09L544.81-46.09L544.81-39.69L538.03-39.69ZM555.06-6.16L555.06-14.53L555.06-14.53Q555.06-15.81 555.55-16.92L555.55-16.92L555.55-16.92Q556.03-18.03 556.86-18.88L556.86-18.88L556.86-18.88Q557.69-19.72 558.81-20.20L558.81-20.20L558.81-20.20Q559.94-20.69 561.19-20.69L561.19-20.69L577.06-20.69L577.06-27.13L556.97-27.13L556.97-33.28L577.06-33.28L577.06-33.28Q578.34-33.28 579.47-32.80L579.47-32.80L579.47-32.80Q580.59-32.31 581.42-31.48L581.42-31.48L581.42-31.48Q582.25-30.66 582.73-29.53L582.73-29.53L582.73-29.53Q583.22-28.41 583.22-27.13L583.22-27.13L583.22 0L577.06 0L577.06-5.63L577.06-5.63Q576.97-4.47 576.44-3.44L576.44-3.44L576.44-3.44Q575.91-2.41 575.08-1.64L575.08-1.64L575.08-1.64Q574.25-0.88 573.19-0.44L573.19-0.44L573.19-0.44Q572.13 0 570.94 0L570.94 0L561.19 0L561.19 0Q559.94 0 558.81-0.48L558.81-0.48L558.81-0.48Q557.69-0.97 556.86-1.80L556.86-1.80L556.86-1.80Q556.03-2.63 555.55-3.75L555.55-3.75L555.55-3.75Q555.06-4.88 555.06-6.16L555.06-6.16ZM561.19-14.53L561.19-6.16L577.06-6.16L577.06-14.53L561.19-14.53ZM593.47-46.09L599.59-46.09L599.59 0L593.47 0L593.47-46.09Z" fill="url(#editing-glowing-gradient)"></path></g></g><style>text {
  font-size: 64px;
  font-family: Arial Black;
  dominant-baseline: central;
  text-anchor: middle;
}</style></svg>